<svg width="136" height="24" viewBox="0 0 136 24" fill="none" xmlns="http://www.w3.org/2000/svg">
<path d="M2.76 3.216L2.976 2.088H14.64L13.968 6.288H12.408L12.432 3.36H7.704L6.6 9.216H9.792L10.512 7.104H11.688L10.656 12.768H9.48L9.552 10.488H6.36L6.336 10.56C5.952 12.576 5.592 14.592 5.256 16.608L7.488 16.872L7.272 18H0.168L0.384 16.872L2.376 16.656L3.72 9.528C3.912 8.52 4.096 7.512 4.272 6.504C4.448 5.48 4.624 4.464 4.8 3.456L2.76 3.216ZM15.0913 16.92C15.0913 16.68 15.1153 16.384 15.1633 16.032C15.2273 15.68 15.2993 15.296 15.3793 14.88L16.7233 8.472L14.7073 8.256L14.8273 7.44L19.3873 6.144L19.7473 6.432L17.9953 14.712C17.8673 15.256 17.8033 15.656 17.8033 15.912C17.8033 16.072 17.8513 16.2 17.9473 16.296C18.0433 16.376 18.1473 16.416 18.2593 16.416C18.7233 16.416 19.3953 15.88 20.2753 14.808L20.9473 15.288C20.6113 15.784 20.2273 16.272 19.7953 16.752C19.3633 17.216 18.8913 17.6 18.3793 17.904C17.8673 18.192 17.2913 18.336 16.6513 18.336C16.2033 18.336 15.8273 18.216 15.5233 17.976C15.2353 17.736 15.0913 17.384 15.0913 16.92ZM19.0273 3.408C18.6113 3.408 18.2513 3.272 17.9473 3C17.6433 2.712 17.4913 2.328 17.4913 1.848C17.4913 1.352 17.6673 0.935999 18.0193 0.599999C18.3873 0.247999 18.7953 0.0719991 19.2433 0.0719991C19.6913 0.0719991 20.0513 0.215999 20.3233 0.503999C20.6113 0.791999 20.7553 1.168 20.7553 1.632C20.7553 2.112 20.5793 2.528 20.2273 2.88C19.8913 3.232 19.4913 3.408 19.0273 3.408ZM24.8479 18L22.4959 18.192L22.2079 17.952L24.1999 8.472L22.1839 8.256L22.3039 7.44L26.7919 6.144L27.1759 6.456L26.6959 8.808C27.4959 8.04 28.3359 7.408 29.2159 6.912C30.0959 6.416 30.9119 6.168 31.6639 6.168C32.1759 6.168 32.5839 6.32 32.8879 6.624C33.1919 6.928 33.3439 7.384 33.3439 7.992C33.3439 8.344 33.3039 8.712 33.2239 9.096C33.1599 9.464 33.0799 9.84 32.9839 10.224L31.8799 14.712C31.8159 14.984 31.7519 15.224 31.6879 15.432C31.6399 15.64 31.6159 15.808 31.6159 15.936C31.6159 16.256 31.7599 16.416 32.0479 16.416C32.5759 16.416 33.2639 15.88 34.1119 14.808L34.7599 15.288C34.4559 15.784 34.0719 16.272 33.6079 16.752C33.1599 17.216 32.6639 17.6 32.1199 17.904C31.5759 18.192 30.9919 18.336 30.3679 18.336C29.9039 18.336 29.5359 18.224 29.2639 18C29.0079 17.776 28.8799 17.464 28.8799 17.064C28.8799 16.744 28.9119 16.424 28.9759 16.104C29.0559 15.784 29.1519 15.408 29.2639 14.976L30.2239 11.064C30.3199 10.68 30.3999 10.32 30.4639 9.984C30.5439 9.632 30.5839 9.344 30.5839 9.12C30.5839 8.496 30.3359 8.184 29.8399 8.184C29.4559 8.184 28.9759 8.336 28.3999 8.64C27.8239 8.944 27.1759 9.408 26.4559 10.032L25.8319 12.912C25.6559 13.76 25.4879 14.608 25.3279 15.456C25.1679 16.288 25.0079 17.136 24.8479 18ZM38.2914 14.136C38.2914 14.872 38.4114 15.416 38.6514 15.768C38.9074 16.104 39.2434 16.272 39.6594 16.272C40.0274 16.272 40.4354 16.136 40.8834 15.864C41.3314 15.576 41.8514 15.12 42.4434 14.496L43.7874 8.232C43.5794 8.12 43.3554 8.032 43.1154 7.968C42.8914 7.888 42.6594 7.848 42.4194 7.848C41.7474 7.848 41.0274 8.216 40.2594 8.952C39.8914 9.32 39.5554 9.792 39.2514 10.368C38.9474 10.928 38.7074 11.536 38.5314 12.192C38.3714 12.848 38.2914 13.496 38.2914 14.136ZM43.7874 18.336C43.3234 18.336 42.9394 18.192 42.6354 17.904C42.3314 17.6 42.1794 17.152 42.1794 16.56C42.1794 16.416 42.1794 16.28 42.1794 16.152C42.1954 16.008 42.2114 15.872 42.2274 15.744C41.5554 16.512 40.8514 17.136 40.1154 17.616C39.3794 18.096 38.6834 18.336 38.0274 18.336C37.4194 18.336 36.8674 18.104 36.3714 17.64C35.8754 17.16 35.6274 16.368 35.6274 15.264C35.6274 14.416 35.7874 13.56 36.1074 12.696C36.4274 11.832 36.8594 11.016 37.4034 10.248C37.9474 9.464 38.5554 8.768 39.2274 8.16C39.8994 7.536 40.5954 7.048 41.3154 6.696C42.0354 6.344 42.7234 6.168 43.3794 6.168C43.6994 6.168 43.9874 6.232 44.2434 6.36C44.4994 6.472 44.7474 6.64 44.9874 6.864L46.4514 6.024L46.8594 6.288L44.9394 14.712C44.8114 15.256 44.7474 15.656 44.7474 15.912C44.7474 16.248 44.9154 16.416 45.2514 16.416C45.5234 16.416 45.8274 16.272 46.1634 15.984C46.5154 15.68 46.8914 15.28 47.2914 14.784L47.9394 15.264C47.6354 15.744 47.2674 16.224 46.8354 16.704C46.4034 17.168 45.9314 17.56 45.4194 17.88C44.9074 18.184 44.3634 18.336 43.7874 18.336ZM51.801 18L49.449 18.192L49.161 17.952L51.153 8.472L49.137 8.256L49.257 7.44L53.745 6.144L54.129 6.456L53.649 8.808C54.449 8.04 55.289 7.408 56.169 6.912C57.049 6.416 57.865 6.168 58.617 6.168C59.129 6.168 59.537 6.32 59.841 6.624C60.145 6.928 60.297 7.384 60.297 7.992C60.297 8.344 60.257 8.712 60.177 9.096C60.113 9.464 60.033 9.84 59.937 10.224L58.833 14.712C58.769 14.984 58.705 15.224 58.641 15.432C58.593 15.64 58.569 15.808 58.569 15.936C58.569 16.256 58.713 16.416 59.001 16.416C59.529 16.416 60.217 15.88 61.065 14.808L61.713 15.288C61.409 15.784 61.025 16.272 60.561 16.752C60.113 17.216 59.617 17.6 59.073 17.904C58.529 18.192 57.945 18.336 57.321 18.336C56.857 18.336 56.489 18.224 56.217 18C55.961 17.776 55.833 17.464 55.833 17.064C55.833 16.744 55.865 16.424 55.929 16.104C56.009 15.784 56.105 15.408 56.217 14.976L57.177 11.064C57.273 10.68 57.353 10.32 57.417 9.984C57.497 9.632 57.537 9.344 57.537 9.12C57.537 8.496 57.289 8.184 56.793 8.184C56.409 8.184 55.929 8.336 55.353 8.64C54.777 8.944 54.129 9.408 53.409 10.032L52.785 12.912C52.609 13.76 52.441 14.608 52.281 15.456C52.121 16.288 51.961 17.136 51.801 18ZM66.5886 18.336C65.4686 18.336 64.5406 17.952 63.8046 17.184C63.0846 16.4 62.7246 15.28 62.7246 13.824C62.7246 12.8 62.9006 11.832 63.2526 10.92C63.6046 9.992 64.0846 9.176 64.6926 8.472C65.3166 7.752 66.0206 7.192 66.8046 6.792C67.6046 6.376 68.4446 6.168 69.3246 6.168C70.1246 6.168 70.7806 6.352 71.2926 6.72C71.8046 7.072 72.1406 7.552 72.3006 8.16C72.2686 8.528 72.1166 8.824 71.8446 9.048C71.5886 9.256 71.2926 9.36 70.9566 9.36C70.6206 9.36 70.3326 9.256 70.0926 9.048C69.8526 8.824 69.6286 8.568 69.4206 8.28L68.6766 7.248C68.0206 7.584 67.4366 8.072 66.9246 8.712C66.4286 9.336 66.0366 10.048 65.7486 10.848C65.4766 11.648 65.3406 12.48 65.3406 13.344C65.3406 14.336 65.5726 15.072 66.0366 15.552C66.5166 16.032 67.1486 16.272 67.9326 16.272C68.5086 16.272 69.0526 16.104 69.5646 15.768C70.0766 15.416 70.5326 15 70.9326 14.52L71.5326 14.976C71.2126 15.568 70.7966 16.12 70.2846 16.632C69.7726 17.144 69.2046 17.56 68.5806 17.88C67.9566 18.184 67.2926 18.336 66.5886 18.336ZM65.2446 20.112L66.2766 18H67.1166L66.3726 19.56C67.1246 19.816 67.6766 20.104 68.0286 20.424C68.3806 20.744 68.5566 21.16 68.5566 21.672C68.5566 22.168 68.3326 22.6 67.8846 22.968C67.4366 23.352 66.7886 23.544 65.9406 23.544C65.5086 23.544 65.1006 23.488 64.7166 23.376C64.3326 23.28 64.0206 23.152 63.7806 22.992L64.1166 22.224C64.6286 22.464 65.1246 22.584 65.6046 22.584C66.0046 22.584 66.3246 22.488 66.5646 22.296C66.8046 22.12 66.9246 21.864 66.9246 21.528C66.9246 21.128 66.7726 20.816 66.4686 20.592C66.1806 20.384 65.7726 20.224 65.2446 20.112ZM75.4633 14.136C75.4633 14.872 75.5833 15.416 75.8233 15.768C76.0793 16.104 76.4153 16.272 76.8313 16.272C77.1993 16.272 77.6073 16.136 78.0553 15.864C78.5033 15.576 79.0233 15.12 79.6153 14.496L80.9593 8.232C80.7513 8.12 80.5273 8.032 80.2873 7.968C80.0633 7.888 79.8313 7.848 79.5913 7.848C78.9193 7.848 78.1993 8.216 77.4313 8.952C77.0633 9.32 76.7273 9.792 76.4233 10.368C76.1193 10.928 75.8793 11.536 75.7033 12.192C75.5433 12.848 75.4633 13.496 75.4633 14.136ZM80.9593 18.336C80.4953 18.336 80.1113 18.192 79.8073 17.904C79.5033 17.6 79.3513 17.152 79.3513 16.56C79.3513 16.416 79.3513 16.28 79.3513 16.152C79.3673 16.008 79.3833 15.872 79.3993 15.744C78.7273 16.512 78.0233 17.136 77.2873 17.616C76.5513 18.096 75.8553 18.336 75.1993 18.336C74.5913 18.336 74.0393 18.104 73.5433 17.64C73.0473 17.16 72.7993 16.368 72.7993 15.264C72.7993 14.416 72.9593 13.56 73.2793 12.696C73.5993 11.832 74.0313 11.016 74.5753 10.248C75.1193 9.464 75.7273 8.768 76.3993 8.16C77.0713 7.536 77.7673 7.048 78.4873 6.696C79.2073 6.344 79.8953 6.168 80.5513 6.168C80.8713 6.168 81.1593 6.232 81.4153 6.36C81.6713 6.472 81.9193 6.64 82.1593 6.864L83.6233 6.024L84.0313 6.288L82.1113 14.712C81.9833 15.256 81.9193 15.656 81.9193 15.912C81.9193 16.248 82.0873 16.416 82.4233 16.416C82.6953 16.416 82.9993 16.272 83.3353 15.984C83.6873 15.68 84.0633 15.28 84.4633 14.784L85.1113 15.264C84.8073 15.744 84.4393 16.224 84.0073 16.704C83.5753 17.168 83.1033 17.56 82.5913 17.88C82.0793 18.184 81.5353 18.336 80.9593 18.336ZM87.5569 3.216L87.7729 2.088H99.4369L98.7649 6.288H97.2049L97.2289 3.36H92.5009L91.3969 9.216H94.5889L95.3089 7.104H96.4849L95.4529 12.768H94.2769L94.3489 10.488H91.1569L91.1329 10.56C90.7489 12.576 90.3889 14.592 90.0529 16.608L92.2849 16.872L92.0689 18H84.9649L85.1809 16.872L87.1729 16.656L88.5169 9.528C88.7089 8.52 88.8929 7.512 89.0689 6.504C89.2449 5.48 89.4209 4.464 89.5969 3.456L87.5569 3.216ZM100.799 14.136C100.799 14.872 100.919 15.416 101.159 15.768C101.415 16.104 101.751 16.272 102.167 16.272C102.535 16.272 102.943 16.136 103.391 15.864C103.839 15.576 104.359 15.12 104.951 14.496L106.295 8.232C106.087 8.12 105.863 8.032 105.623 7.968C105.399 7.888 105.167 7.848 104.927 7.848C104.255 7.848 103.535 8.216 102.767 8.952C102.399 9.32 102.063 9.792 101.759 10.368C101.455 10.928 101.215 11.536 101.039 12.192C100.879 12.848 100.799 13.496 100.799 14.136ZM106.295 18.336C105.831 18.336 105.447 18.192 105.143 17.904C104.839 17.6 104.687 17.152 104.687 16.56C104.687 16.416 104.687 16.28 104.687 16.152C104.703 16.008 104.719 15.872 104.735 15.744C104.063 16.512 103.359 17.136 102.623 17.616C101.887 18.096 101.191 18.336 100.535 18.336C99.9273 18.336 99.3753 18.104 98.8793 17.64C98.3833 17.16 98.1353 16.368 98.1353 15.264C98.1353 14.416 98.2953 13.56 98.6152 12.696C98.9353 11.832 99.3673 11.016 99.9113 10.248C100.455 9.464 101.063 8.768 101.735 8.16C102.407 7.536 103.103 7.048 103.823 6.696C104.543 6.344 105.231 6.168 105.887 6.168C106.207 6.168 106.495 6.232 106.751 6.36C107.007 6.472 107.255 6.64 107.495 6.864L108.959 6.024L109.367 6.288L107.447 14.712C107.319 15.256 107.255 15.656 107.255 15.912C107.255 16.248 107.423 16.416 107.759 16.416C108.031 16.416 108.335 16.272 108.671 15.984C109.023 15.68 109.399 15.28 109.799 14.784L110.447 15.264C110.143 15.744 109.775 16.224 109.343 16.704C108.911 17.168 108.439 17.56 107.927 17.88C107.415 18.184 106.871 18.336 106.295 18.336ZM115.245 18.336C114.125 18.336 113.197 17.952 112.461 17.184C111.741 16.4 111.381 15.28 111.381 13.824C111.381 12.8 111.557 11.832 111.909 10.92C112.261 9.992 112.741 9.176 113.349 8.472C113.973 7.752 114.677 7.192 115.461 6.792C116.261 6.376 117.101 6.168 117.981 6.168C118.781 6.168 119.437 6.352 119.949 6.72C120.461 7.072 120.797 7.552 120.957 8.16C120.925 8.528 120.773 8.824 120.501 9.048C120.245 9.256 119.949 9.36 119.613 9.36C119.277 9.36 118.989 9.256 118.749 9.048C118.509 8.824 118.285 8.568 118.077 8.28L117.333 7.248C116.677 7.584 116.093 8.072 115.581 8.712C115.085 9.336 114.693 10.048 114.405 10.848C114.133 11.648 113.997 12.48 113.997 13.344C113.997 14.336 114.229 15.072 114.693 15.552C115.173 16.032 115.805 16.272 116.589 16.272C117.165 16.272 117.709 16.104 118.221 15.768C118.733 15.416 119.189 15 119.589 14.52L120.189 14.976C119.869 15.568 119.453 16.12 118.941 16.632C118.429 17.144 117.861 17.56 117.237 17.88C116.613 18.184 115.949 18.336 115.245 18.336ZM122.505 16.92C122.505 16.68 122.529 16.384 122.577 16.032C122.641 15.68 122.713 15.296 122.793 14.88L124.137 8.472L122.121 8.256L122.241 7.44L126.801 6.144L127.161 6.432L125.409 14.712C125.281 15.256 125.217 15.656 125.217 15.912C125.217 16.072 125.265 16.2 125.361 16.296C125.457 16.376 125.561 16.416 125.673 16.416C126.137 16.416 126.809 15.88 127.689 14.808L128.361 15.288C128.025 15.784 127.641 16.272 127.209 16.752C126.777 17.216 126.305 17.6 125.793 17.904C125.281 18.192 124.705 18.336 124.065 18.336C123.617 18.336 123.241 18.216 122.937 17.976C122.649 17.736 122.505 17.384 122.505 16.92ZM126.441 3.408C126.025 3.408 125.665 3.272 125.361 3C125.057 2.712 124.905 2.328 124.905 1.848C124.905 1.352 125.081 0.935999 125.433 0.599999C125.801 0.247999 126.209 0.0719991 126.657 0.0719991C127.105 0.0719991 127.465 0.215999 127.737 0.503999C128.025 0.791999 128.169 1.168 128.169 1.632C128.169 2.112 127.993 2.528 127.641 2.88C127.305 3.232 126.905 3.408 126.441 3.408ZM131.278 18.336C130.798 18.336 130.406 18.208 130.102 17.952C129.814 17.696 129.67 17.32 129.67 16.824C129.67 16.584 129.694 16.288 129.742 15.936C129.806 15.584 129.894 15.128 130.006 14.568L131.518 7.176C131.662 6.44 131.806 5.712 131.95 4.992C132.094 4.256 132.222 3.52 132.334 2.784L130.414 2.568L130.534 1.752L135.118 0.48L135.43 0.719999L132.55 14.688C132.422 15.248 132.358 15.648 132.358 15.888C132.358 16.064 132.406 16.2 132.502 16.296C132.614 16.376 132.734 16.416 132.862 16.416C133.31 16.416 133.974 15.88 134.854 14.808L135.502 15.288C135.182 15.784 134.806 16.272 134.374 16.752C133.958 17.216 133.494 17.6 132.982 17.904C132.47 18.192 131.902 18.336 131.278 18.336Z" fill="#6471B2"/>
</svg>
