<svg width="22" height="22" viewBox="0 0 22 22" fill="none" xmlns="http://www.w3.org/2000/svg">
<g clip-path="url(#clip0_80_6)">
<path d="M21.9998 20.7045L16.2596 14.9643C17.7507 13.1407 18.4838 10.8137 18.3073 8.46475C18.1308 6.11577 17.0582 3.92447 15.3114 2.34413C13.5646 0.763789 11.2772 -0.0846941 8.92231 -0.025815C6.56743 0.0330642 4.32528 0.994801 2.65961 2.66047C0.993947 4.32613 0.0322097 6.56829 -0.0266695 8.92316C-0.0855486 11.278 0.762935 13.5654 2.34328 15.3123C3.92362 17.0591 6.11491 18.1317 8.4639 18.3082C10.8129 18.4847 13.1398 17.7516 14.9635 16.2605L20.7036 22.0007L21.9998 20.7045ZM9.16647 16.5007C7.71607 16.5007 6.29825 16.0706 5.09228 15.2648C3.88632 14.459 2.94639 13.3137 2.39135 11.9737C1.83631 10.6337 1.69108 9.15919 1.97404 7.73666C2.257 6.31413 2.95543 5.00746 3.98102 3.98187C5.0066 2.95629 6.31328 2.25785 7.7358 1.9749C9.15833 1.69194 10.6328 1.83716 11.9728 2.3922C13.3128 2.94725 14.4581 3.88718 15.2639 5.09314C16.0697 6.2991 16.4998 7.71692 16.4998 9.16732C16.4976 11.1116 15.7243 12.9756 14.3495 14.3504C12.9747 15.7252 11.1107 16.4985 9.16647 16.5007Z" fill="#EA1D2C"/>
</g>
<defs>
<clipPath id="clip0_80_6">
<rect width="22" height="22" fill="white"/>
</clipPath>
</defs>
</svg>
