<svg width="28" height="28" viewBox="0 0 28 28" fill="none" xmlns="http://www.w3.org/2000/svg">
<path d="M11.6667 17.5L11.6667 14" stroke="#EA1D2C" stroke-width="2" stroke-linecap="round"/>
<path d="M16.3333 17.5L16.3333 14" stroke="#EA1D2C" stroke-width="2" stroke-linecap="round"/>
<path d="M3.5 8.16666H24.5V8.16666C23.0955 8.16666 22.3933 8.16666 21.8889 8.50372C21.6705 8.64964 21.483 8.83714 21.3371 9.05552C21 9.55997 21 10.2622 21 11.6667V19.3333C21 21.2189 21 22.1618 20.4142 22.7475C19.8284 23.3333 18.8856 23.3333 17 23.3333H11C9.11438 23.3333 8.17157 23.3333 7.58579 22.7475C7 22.1618 7 21.2189 7 19.3333V11.6667C7 10.2622 7 9.55997 6.66294 9.05552C6.51702 8.83714 6.32952 8.64964 6.11114 8.50372C5.60669 8.16666 4.90446 8.16666 3.5 8.16666V8.16666Z" stroke="#EA1D2C" stroke-width="2" stroke-linecap="round"/>
<path d="M11.7462 3.93236C11.8791 3.80832 12.172 3.69872 12.5795 3.62054C12.987 3.54237 13.4863 3.5 14 3.5C14.5136 3.5 15.0129 3.54237 15.4204 3.62054C15.8279 3.69872 16.1209 3.80832 16.2538 3.93236" stroke="#EA1D2C" stroke-width="2" stroke-linecap="round"/>
</svg>
