<svg width="30" height="30" viewBox="0 0 30 30" fill="none" xmlns="http://www.w3.org/2000/svg">
<path d="M11.4778 22.9023L11.2314 22.4672L11.4778 22.9023C11.6568 22.801 11.8004 22.6571 11.9625 22.4947C11.9733 22.4838 11.9842 22.4729 11.9953 22.4618L21.4393 13.0178L21.4626 12.9945C21.776 12.6811 22.0461 12.4111 22.2333 12.1657C22.4339 11.9028 22.5858 11.6104 22.5858 11.25C22.5858 10.8896 22.4339 10.5972 22.2333 10.3343C22.0461 10.0889 21.7761 9.81891 21.4626 9.5055L21.4393 9.48223L20.5178 8.56066L20.4945 8.53738C20.1811 8.22395 19.9111 7.95388 19.6657 7.7667C19.4028 7.5661 19.1104 7.41421 18.75 7.41421C18.3896 7.41421 18.0972 7.5661 17.8343 7.7667C17.5889 7.95388 17.3189 8.22395 17.0055 8.53738L16.9822 8.56066L7.53816 18.0047C7.52714 18.0158 7.51619 18.0267 7.50533 18.0375C7.34286 18.1996 7.19903 18.3432 7.09766 18.5222C6.9963 18.7012 6.94723 18.8984 6.89179 19.1211C6.88809 19.136 6.88435 19.151 6.88057 19.1662L5.96704 22.8203C5.96483 22.8291 5.9626 22.838 5.96036 22.847C5.92112 23.0037 5.87921 23.171 5.86546 23.3115C5.85032 23.4663 5.85385 23.7273 6.06326 23.9367C6.27267 24.1461 6.53373 24.1497 6.68846 24.1345C6.829 24.1208 6.99635 24.0789 7.15304 24.0396C7.16197 24.0374 7.17087 24.0352 7.17972 24.033L10.8338 23.1194C10.849 23.1156 10.864 23.1119 10.8789 23.1082C11.1016 23.0528 11.2988 23.0037 11.4778 22.9023Z" stroke="#EA1D2C"/>
<path d="M15.625 9.375L19.375 6.875L23.125 10.625L20.625 14.375L15.625 9.375Z" fill="#EA1D2C"/>
</svg>
